# xmcd CD database file
#
# Track frame offsets:
#	150
#	22650
#	41362
#	63150
#	81375
#	99150
#	118950
#	141975
#	161550
#	182550
#	206175
#	227850
#	249472
#	272550
#	287512
#
# Disc length: 4125 seconds
#
# Revision: 3
# Processed by: cddbd v1.5.2PL0 Copyright (c) Steve Scherf et al.
# Submitted via: CDex 1.70beta3
#
DISCID=cb101b0f
DTITLE=angela - 螳晉ｮｱ - TREASURE BOX -
DYEAR=2007
DGENRE=New Age
TTITLE0=譏取律縺ｸ縺ｮbrilliant road
TTITLE1=邯ｺ鮗励↑螟懃ｩｺ
TTITLE2=The end of the world
TTITLE3=merry-go-round
TTITLE4=Stay With Me
TTITLE5=fly me to the sky
TTITLE6=Proof
TTITLE7=in your arms
TTITLE8=Shangri-La
TTITLE9=cheers!
TTITLE10=DEAD SET
TTITLE11=Yell for you
TTITLE12=譫懊※辟｡縺阪Δ繝弱Ο繝ｼ繧ｰ
TTITLE13=魑･
TTITLE14=gravitation
EXTD=YEAR: 2007
EXTT0=
EXTT1=
EXTT2=
EXTT3=
EXTT4=
EXTT5=
EXTT6=
EXTT7=
EXTT8=
EXTT9=
EXTT10=
EXTT11=
EXTT12=
EXTT13=
EXTT14=
PLAYORDER=
